<svg xmlns="http://www.w3.org/2000/svg" xmlns:xlink="http://www.w3.org/1999/xlink" version="1.1" id="Layer_1" x="0px" y="0px" viewBox="0 0 191.8 43.8" style="enable-background:new 0 0 191.8 43.8;" xml:space="preserve"><style type="text/css">
	.st0{fill:#00051A;}
	.st1{clip-path:url(#SVGID_2_);}
	.st2{fill:url(#SVGID_3_);}
</style><title>Asset 1</title><g id="Layer_2"><g id="Layer_1-2"><path class="st0" d="M55.5,23.6V8.3c0-0.3,0.3-0.6,0.6-0.6l0,0c0.2,0,0.3,0.1,0.4,0.2c0.1,0.1,0.2,0.2,0.2,0.4v6.6    c0.5-0.7,1.2-1.2,1.9-1.6c2.2-1.1,4.8-0.7,6.4,1.1c2.2,2.3,2.2,5.9,0,8.1c-1.7,1.7-4.3,2.2-6.4,1.1c-0.8-0.4-1.4-1-1.9-1.6v1.7    c0,0.2-0.1,0.3-0.2,0.4c-0.1,0.1-0.3,0.2-0.4,0.2C55.8,24.2,55.5,23.9,55.5,23.6L55.5,23.6L55.5,23.6z M56.7,18.2v0.2    c0,1.2,0.5,2.4,1.3,3.2c1.6,1.7,4.4,1.8,6.1,0.2c0.1-0.1,0.1-0.1,0.2-0.2c1.7-1.8,1.7-4.7,0-6.5c-0.8-0.9-1.9-1.4-3.1-1.3    c-1.2,0-2.3,0.5-3.1,1.3C57.2,15.9,56.7,17,56.7,18.2L56.7,18.2z"/><path class="st0" d="M73.4,23.6V13.2c-0.1-0.3,0.1-0.6,0.4-0.7c0.3-0.1,0.6,0.1,0.7,0.4c0,0.1,0,0.1,0,0.2v2.5    c0-0.1,0.1-0.2,0.2-0.3c0.9-1.7,2.7-2.8,4.6-2.8c0.3-0.1,0.6,0.1,0.7,0.4c0.1,0.3-0.1,0.6-0.4,0.7c-0.1,0-0.1,0-0.2,0    c-1.3,0.1-2.6,0.8-3.3,1.9c-0.6,0.8-1.1,1.7-1.4,2.7c0,0.1,0,0.1,0,0.2v5.1c0.1,0.3-0.1,0.6-0.4,0.7c-0.3,0.1-0.6-0.1-0.7-0.4    C73.5,23.7,73.5,23.6,73.4,23.6L73.4,23.6z"/><path class="st0" d="M86.1,10V9.5c0-0.3,0.3-0.6,0.6-0.6l0,0c0.2,0,0.3,0.1,0.4,0.2c0.1,0.1,0.2,0.2,0.2,0.4V10    c0,0.2-0.1,0.3-0.2,0.4c-0.1,0.1-0.3,0.2-0.4,0.2c-0.2,0-0.3-0.1-0.4-0.2C86.1,10.3,86.1,10.2,86.1,10z M86.1,23.6V13.2    c0-0.1,0.1-0.3,0.2-0.4c0.2-0.2,0.6-0.2,0.8,0c0.1,0.1,0.2,0.2,0.2,0.4v10.4c0,0.2-0.1,0.3-0.2,0.4c-0.1,0.1-0.3,0.2-0.4,0.2    C86.4,24.2,86.1,23.9,86.1,23.6L86.1,23.6L86.1,23.6z"/><path class="st0" d="M105.1,13.2v10c0,3-2.4,5.4-5.4,5.4c0,0,0,0,0,0c-0.8,0-1.6-0.2-2.4-0.5c-0.3-0.2-0.4-0.5-0.2-0.8    c0.1-0.3,0.3-0.4,0.6-0.3c0.1,0,0.1,0,0.2,0.1c0.6,0.3,1.2,0.4,1.9,0.4c1.1,0,2.2-0.4,3-1.2c0.8-0.8,1.3-1.9,1.3-3v-1.4    c-1,1.4-2.6,2.2-4.3,2.2c-1.5,0-2.9-0.6-3.8-1.7c-2.1-2.3-2.1-5.8,0-8.1c1.6-1.8,4.2-2.2,6.3-1.1c0.7,0.4,1.4,1,1.9,1.6v-1.6    c0-0.2,0.1-0.3,0.2-0.4c0.1-0.1,0.2-0.2,0.4-0.2c0.1,0,0.3,0.1,0.4,0.2C105,12.9,105.1,13.1,105.1,13.2z M95.4,18.3    c0,1.2,0.4,2.4,1.3,3.3c1.5,1.7,4.1,1.8,5.8,0.3c0.1-0.1,0.2-0.2,0.3-0.3c0.8-0.9,1.3-2.1,1.3-3.3c0-1.2-0.4-2.4-1.3-3.3    c-1.5-1.7-4.1-1.8-5.8-0.3c-0.1,0.1-0.2,0.2-0.3,0.3C95.8,16,95.4,17.1,95.4,18.3z"/><path class="st0" d="M113.6,24.2h-0.1c-0.3,0-0.5-0.1-0.6-0.4c0,0,0-0.1,0-0.1V8.3c0-0.3,0.3-0.6,0.6-0.6l0,0    c0.2,0,0.3,0.1,0.4,0.2c0.1,0.1,0.2,0.2,0.2,0.4v6.1c0.9-1.1,2.2-1.7,3.5-1.7c1.3,0,2.6,0.4,3.5,1.3c0.9,0.8,1.4,2.1,1.4,3.3v6.4    c0,0.2-0.1,0.3-0.2,0.4c-0.1,0.1-0.3,0.2-0.4,0.2c-0.3,0-0.6-0.3-0.6-0.6v-6.4c0-0.9-0.4-1.8-1.1-2.4c-1.5-1.3-3.7-1.3-5.2,0    c-0.7,0.6-1.1,1.5-1.1,2.4v6.5c0,0.1,0,0.2-0.1,0.2C113.8,24.1,113.7,24.1,113.6,24.2L113.6,24.2z"/><path class="st0" d="M133.1,12.6c0.3,0.1,0.5,0.4,0.4,0.7c0,0.2-0.2,0.4-0.4,0.4h-1.5v8.4c0,0.2,0.1,0.5,0.3,0.6    c0.1,0.1,0.3,0.2,0.5,0.2c0.2,0,0.3,0.1,0.4,0.2c0.1,0.1,0.2,0.2,0.2,0.4c0,0.2-0.1,0.3-0.2,0.4c-0.1,0.1-0.2,0.2-0.4,0.2    c-0.5,0-1.1-0.2-1.4-0.6c-0.4-0.4-0.6-0.9-0.6-1.4v-8.4H129c-0.3,0-0.4,0-0.5-0.1c-0.1-0.1-0.1-0.2-0.1-0.4c0-0.1,0-0.2,0-0.3    c0-0.2,0.2-0.3,0.5-0.3h1.4V8.4c0-0.1,0.1-0.3,0.2-0.4c0.1-0.1,0.2-0.2,0.4-0.2c0.2,0,0.3,0.1,0.4,0.2c0.1,0.1,0.2,0.2,0.2,0.4    v4.3L133.1,12.6z"/><path class="st0" d="M142.3,22.5c-2.3-2.2-2.3-5.8-0.1-8c0,0,0.1-0.1,0.1-0.1c1.1-1.1,2.5-1.7,4-1.7c1.4,0,2.7,0.4,3.8,1.3    c0.1,0.1,0.2,0.2,0.2,0.4c0,0.2,0,0.3-0.1,0.4c-0.2,0.2-0.5,0.3-0.7,0.1c0,0,0,0-0.1,0c-0.9-0.7-2-1.1-3.1-1    c-1.2,0-2.4,0.5-3.2,1.4c-1.8,1.7-1.9,4.6-0.1,6.4c0,0,0.1,0.1,0.1,0.1c0.8,0.9,2,1.3,3.2,1.3c1.1,0,2.2-0.3,3.1-1    c0.2-0.2,0.5-0.2,0.7,0.1c0,0,0,0,0.1,0.1c0.2,0.3,0.2,0.5-0.1,0.8C147.7,24.7,144.4,24.5,142.3,22.5L142.3,22.5z"/><path class="st0" d="M158.2,22.5c-2.1-2.3-2.1-5.8,0-8.1c1.9-2.1,5.2-2.3,7.4-0.4c0.1,0.1,0.3,0.2,0.4,0.4c2.1,2.3,2.1,5.8,0,8.1    c-1.9,2.1-5.2,2.3-7.4,0.4C158.5,22.7,158.4,22.6,158.2,22.5z M162.1,13.7c-1.2,0-2.3,0.5-3,1.4c-1.7,1.9-1.7,4.7,0,6.6    c1.5,1.7,4.1,1.8,5.8,0.3c0.1-0.1,0.2-0.2,0.3-0.3c1.7-1.9,1.7-4.7,0-6.6C164.4,14.2,163.3,13.7,162.1,13.7z"/><path class="st0" d="M174.8,24.2h-0.1c-0.2,0-0.4-0.2-0.5-0.4V13.2c0-0.1,0.1-0.3,0.2-0.4c0.2-0.2,0.6-0.2,0.8,0    c0.1,0.1,0.2,0.2,0.2,0.4v1.1c0.9-1.1,2.2-1.7,3.5-1.6c0.9,0,1.7,0.2,2.4,0.7c0.7,0.4,1.3,1,1.7,1.8c0.4-0.7,1-1.3,1.7-1.8    c2.2-1.3,5.1-0.6,6.4,1.6c0.4,0.7,0.7,1.6,0.7,2.4v6.3c0,0.1-0.1,0.3-0.2,0.4c-0.1,0.1-0.2,0.2-0.4,0.2c-0.1,0-0.3-0.1-0.4-0.2    c-0.1-0.1-0.2-0.2-0.2-0.4v-6.3c0-1-0.4-1.9-1.1-2.5c-1.3-1.4-3.6-1.4-4.9-0.1c0,0,0,0-0.1,0.1c-0.7,0.7-1.1,1.6-1,2.5v6.3l0,0    l0,0c0,0.1-0.1,0.2-0.2,0.3c-0.1,0.1-0.2,0.1-0.3,0.1h-0.1l-0.2-0.1c0,0,0,0-0.1-0.1l-0.1-0.1v-0.1c0,0,0,0,0-0.1v-6.3    c0-1-0.4-1.9-1-2.5c-1.4-1.4-3.6-1.4-5,0c0,0,0,0,0,0c-0.7,0.7-1.1,1.6-1,2.5v6.3c0,0.2-0.1,0.4-0.3,0.4    C175,24.1,174.9,24.2,174.8,24.2z"/><g><defs><path id="SVGID_1_" d="M33.7,24.1c1.6,1.6,1.6,4.2,0,5.8c-1.6,1.6-4.2,1.6-5.8,0L16.1,17.9c-0.4-0.4-0.5-1.1-0.1-1.6      c0.4-0.5,1.2-0.6,1.7-0.2c0,0,0.1,0,0.1,0.1l11.9,11.9c0.6,0.6,1.6,0.7,2.3,0.1c0.7-0.6,0.8-1.7,0.2-2.4c0,0-0.1-0.1-0.1-0.1      l-6.3-6.3c-0.5-0.5-0.5-1.2,0-1.7c0.5-0.5,1.2-0.5,1.7,0L33.7,24.1z M13.3,14.6c0.9-1.4,2.5-2.1,4.1-2c1.1,0.1,2.1,0.6,2.9,1.4      l0.6,0.6c0.5,0.5,1.2,0.5,1.6,0s0.5-1.2,0-1.6L22,12.2c-2.5-2.8-6.9-3-9.6-0.5s-3,6.9-0.5,9.6c0.1,0.2,0.3,0.3,0.5,0.5l6.4,6.4      c0.5,0.5,1.2,0.5,1.6,0s0.5-1.2,0-1.6l-6.5-6.5c-1.1-1.1-1.5-2.6-1.2-4.1C12.8,15.6,13,15,13.3,14.6z M23.3,31.4      c-0.4,0.5-0.3,1.1,0.1,1.5l7.1,7.1c0.4,0.4,1.1,0.4,1.5,0c0.5-0.4,0.5-1.1,0.1-1.6c0,0-0.1-0.1-0.1-0.1l-7.1-7.1      c-0.4-0.4-1.1-0.5-1.6,0C23.3,31.3,23.3,31.4,23.3,31.4L23.3,31.4z M8.4,25.7L20.7,38c0.4,0.5,1.2,0.6,1.7,0.2      c0.5-0.4,0.6-1.2,0.2-1.7c-0.1-0.1-0.1-0.1-0.2-0.2L10.2,24c-2.9-2.9-3.6-7.3-1.8-11c0.2-0.5,0.1-1-0.2-1.4l0,0      c-0.5-0.5-1.2-0.5-1.7,0c-0.1,0.1-0.2,0.2-0.2,0.3C3.9,16.5,4.8,22,8.4,25.7z M33.3,33.7c-0.5,0.5-0.5,1.2,0,1.7l5.5,5.5      c0.5,0.4,1.3,0.3,1.7-0.2c0.4-0.4,0.4-1.1,0-1.5l-5.5-5.5C34.6,33.2,33.8,33.2,33.3,33.7z M36.7,30.3l3.6,3.6      c0.5,0.4,1.3,0.3,1.7-0.2c0.4-0.4,0.4-1.1,0-1.5l-3.6-3.6c-0.4-0.5-1.2-0.6-1.7-0.2c-0.5,0.4-0.6,1.2-0.2,1.7      C36.5,30.2,36.6,30.2,36.7,30.3z M43.6,29.6c0.4,0.4,1.1,0.4,1.6,0c0.4-0.4,0.4-1.1,0-1.6l-5.9-5.9c-0.4-0.4-1.1-0.4-1.6,0      c-0.4,0.4-0.4,1.1,0,1.6L43.6,29.6z M33.5,9.2c-0.5-0.4-1.3-0.4-1.7,0.1c-0.4,0.5-0.4,1.1,0,1.6l9.8,9.6      c0.5,0.4,1.3,0.4,1.7-0.1c0.4-0.5,0.4-1.1,0-1.6L33.5,9.2z M15.2,38.8c0.7,0,1.2-0.6,1.2-1.2c0-0.3-0.1-0.6-0.4-0.9l-5.4-5.4      c-0.4-0.5-1.2-0.6-1.7-0.2c-0.5,0.4-0.6,1.2-0.2,1.7C8.8,32.9,8.8,33,8.9,33l5.4,5.4C14.5,38.7,14.8,38.8,15.2,38.8z M20.1,43.8      c0.7,0,1.2-0.6,1.2-1.2c0-0.3-0.1-0.6-0.4-0.9l-1-1c-0.5-0.4-1.3-0.3-1.7,0.2c-0.4,0.4-0.4,1.1,0,1.5l1,1      C19.4,43.6,19.7,43.8,20.1,43.8z M25.7,8.4C22.1,4.8,16.6,3.9,12,6.1c-0.6,0.3-0.9,1-0.6,1.6c0.1,0.1,0.1,0.2,0.2,0.3l0,0      C12,8.4,12.6,8.5,13,8.3c3.7-1.7,8-1,10.9,1.9l8,8c0.4,0.5,1.2,0.5,1.7,0.1c0.5-0.4,0.6-1.2,0.2-1.7c0,0-0.1-0.1-0.1-0.1      L25.7,8.4z M5.7,29.3c-0.3,0-0.6-0.1-0.8-0.3c-6.6-6.6-6.6-17.2,0-23.8l0.3-0.3c6.6-6.5,17.2-6.5,23.8,0c0.4,0.4,0.4,1.2,0,1.6      c-0.4,0.4-1.2,0.4-1.6,0l0,0c-5.7-5.7-14.9-5.7-20.6,0L6.5,6.8c-5.7,5.7-5.7,14.9,0,20.6C7,27.8,7,28.5,6.6,28.9      C6.4,29.2,6,29.3,5.7,29.3L5.7,29.3z"/></defs><clipPath id="SVGID_2_"><use xlink:href="#SVGID_1_" style="overflow:visible;"/></clipPath><g class="st1"><linearGradient id="SVGID_3_" gradientUnits="userSpaceOnUse" x1="-2318.0085" y1="-5086.2227" x2="-2266.5305" y2="-5121.9307" gradientTransform="matrix(0.8916 0.4529 0.4529 -0.8916 4390.8657 -3476.2358)"><stop offset="0" style="stop-color:#6625FF"/><stop offset="5.000000e-02" style="stop-color:#7827FD"/><stop offset="0.21" style="stop-color:#B22DF7"/><stop offset="0.35" style="stop-color:#DC31F3"/><stop offset="0.46" style="stop-color:#F534F0"/><stop offset="0.53" style="stop-color:#FF35EF"/></linearGradient><polygon class="st2" points="8,-23.7 80.8,13.3 50.6,72.9 -22.3,35.9     "/></g></g></g></g></svg>